<svg width="460" height="511" viewBox="0 0 460 511" fill="none" xmlns="http://www.w3.org/2000/svg">
<path d="M404.16 337.95L331.86 121.75L89.8901 194.77L54.1201 178.48L32.1901 212.18L122.21 493.83L421.4 389.5L443.33 355.79L404.16 337.95Z" fill="#1EA0E2"/>
<path d="M122.21 498.43C121.5 498.43 120.8 498.27 120.16 497.95C119.05 497.4 118.21 496.42 117.83 495.24L27.8101 213.58C27.3901 212.26 27.5801 210.83 28.3401 209.67L50.2701 175.96C51.5101 174.05 53.9601 173.34 56.0301 174.28L90.2201 189.86L330.53 117.34C332.91 116.62 335.43 117.93 336.22 120.28L407.89 334.58L445.24 351.6C446.46 352.15 447.37 353.21 447.75 354.5C448.12 355.79 447.92 357.17 447.19 358.29L425.26 392C424.7 392.85 423.88 393.5 422.92 393.83L123.73 498.17C123.24 498.34 122.72 498.43 122.21 498.43ZM37.2301 212.86L125.15 487.93L418.4 385.67L436.56 357.75L402.25 342.12C401.09 341.59 400.2 340.6 399.8 339.39L328.91 127.43L91.2201 199.16C90.1501 199.48 89.0001 199.41 87.9901 198.94L55.8201 184.28L37.2301 212.86Z" fill="#002549"/>
<path d="M54.1201 178.48L353.79 88.04L443.33 355.79L144.14 460.12L54.1201 178.48Z" fill="#17E4FF"/>
<path d="M144.14 464.72C143.43 464.72 142.73 464.56 142.09 464.24C140.98 463.69 140.14 462.71 139.76 461.53L49.7401 179.88C49.3601 178.71 49.4801 177.43 50.0501 176.34C50.6201 175.25 51.6101 174.43 52.7901 174.08L352.46 83.6501C354.84 82.9301 357.36 84.2401 358.15 86.5901L447.7 354.34C448.5 356.73 447.23 359.31 444.85 360.14L145.66 464.46C145.17 464.63 144.65 464.72 144.14 464.72ZM59.9201 181.53L147.08 454.23L437.53 352.95L350.84 93.7301L59.9201 181.53Z" fill="#002549"/>
<path d="M353.79 88.04L339.4 44.01L36.9801 136.51L54.1201 178.48L353.79 88.04Z" fill="#BEECED"/>
<path d="M54.1201 183.07C52.3001 183.07 50.5901 181.98 49.8601 180.21L32.7201 138.24C32.2301 137.04 32.2701 135.7 32.8201 134.53C33.3701 133.36 34.3901 132.48 35.6301 132.1L338.05 39.6001C340.45 38.8701 342.99 40.1901 343.76 42.5701L358.15 86.6101C358.53 87.7901 358.43 89.0701 357.86 90.1601C357.29 91.2601 356.3 92.0801 355.11 92.4301L55.4401 182.86C55.0101 183.01 54.5601 183.07 54.1201 183.07ZM43.1401 139.43L56.8001 172.86L347.96 85.0001L336.43 49.7201L43.1401 139.43Z" fill="#002549"/>
<path d="M32.1901 212.18L17.1801 165.77L36.9801 136.51L54.1201 178.48L32.1901 212.18Z" fill="#A6CED1"/>
<path d="M32.1901 216.78C31.9901 216.78 31.7901 216.77 31.5801 216.74C29.8201 216.51 28.3601 215.28 27.8101 213.6L12.8001 167.18C12.3601 165.83 12.5701 164.36 13.3701 163.19L33.1701 133.93C34.1201 132.53 35.7701 131.76 37.4501 131.93C39.1401 132.11 40.5901 133.19 41.2301 134.76L58.3701 176.73C58.9401 178.13 58.7901 179.71 57.9701 180.98L36.0401 214.69C35.1901 216.01 33.7301 216.78 32.1901 216.78ZM22.2401 166.49L33.5901 201.6L48.9501 177.99L35.9701 146.2L22.2401 166.49Z" fill="#002549"/>
<path d="M89.4701 147.94C87.5501 147.94 85.7601 146.73 85.1101 144.81C84.3001 142.4 85.6001 139.8 88.0001 138.99C100.98 134.63 107.78 119.86 103.15 106.08C98.5201 92.29 84.1901 84.62 71.2101 88.98C58.2301 93.34 51.4301 108.11 56.0601 121.89C56.8301 124.19 57.8901 126.37 59.2001 128.36C60.6001 130.48 60.0101 133.33 57.8901 134.73C55.7701 136.13 52.9201 135.54 51.5201 133.42C49.7701 130.76 48.3601 127.87 47.3401 124.82C41.1001 106.23 50.4901 86.24 68.2801 80.26C86.0701 74.29 105.62 84.55 111.87 103.15C118.11 121.74 108.72 141.73 90.9301 147.71C90.4501 147.86 89.9601 147.94 89.4701 147.94Z" fill="#002549"/>
<path d="M89.8701 159.26C81.0901 159.26 73.9501 152.12 73.9501 143.34C73.9501 134.56 81.0901 127.42 89.8701 127.42C98.6501 127.42 105.79 134.56 105.79 143.34C105.79 152.12 98.6501 159.26 89.8701 159.26ZM89.8701 136.62C86.1601 136.62 83.1501 139.64 83.1501 143.34C83.1501 147.05 86.1701 150.06 89.8701 150.06C93.5701 150.06 96.5901 147.04 96.5901 143.34C96.5901 139.63 93.5801 136.62 89.8701 136.62Z" fill="#002549"/>
<path d="M160.92 126.03C159 126.03 157.21 124.82 156.56 122.9C155.75 120.49 157.05 117.89 159.45 117.08C172.43 112.72 179.23 97.9501 174.6 84.1701C169.97 70.3801 155.64 62.7101 142.66 67.0701C136.41 69.1701 131.39 73.7201 128.52 79.8801C125.61 86.1201 125.25 93.2601 127.51 99.9801C128.28 102.28 129.34 104.46 130.65 106.45C132.05 108.57 131.46 111.42 129.34 112.82C127.22 114.22 124.37 113.63 122.97 111.51C121.22 108.85 119.81 105.96 118.79 102.91C115.78 93.9401 116.27 84.3901 120.18 76.0001C124.12 67.5301 131.07 61.2601 139.73 58.3601C157.52 52.3901 177.07 62.6501 183.32 81.2501C189.56 99.8401 180.17 119.83 162.38 125.81C161.9 125.95 161.4 126.03 160.92 126.03Z" fill="#002549"/>
<path d="M161.32 137.34C152.54 137.34 145.4 130.2 145.4 121.42C145.4 112.64 152.54 105.5 161.32 105.5C170.1 105.5 177.24 112.64 177.24 121.42C177.24 130.2 170.09 137.34 161.32 137.34ZM161.32 114.71C157.61 114.71 154.6 117.73 154.6 121.43C154.6 125.14 157.62 128.15 161.32 128.15C165.03 128.15 168.04 125.13 168.04 121.43C168.04 117.72 165.02 114.71 161.32 114.71Z" fill="#002549"/>
<path d="M233.66 103.65C231.74 103.65 229.95 102.44 229.3 100.52C228.49 98.11 229.79 95.51 232.19 94.7C245.17 90.34 251.97 75.57 247.34 61.79C242.71 48 228.38 40.33 215.4 44.69C209.15 46.79 204.13 51.34 201.26 57.5C198.35 63.74 197.99 70.88 200.25 77.6C201.02 79.9 202.08 82.08 203.39 84.07C204.79 86.19 204.2 89.04 202.08 90.44C199.96 91.84 197.11 91.25 195.71 89.13C193.96 86.47 192.55 83.58 191.53 80.53C188.52 71.56 189.01 62.01 192.92 53.62C196.86 45.15 203.81 38.88 212.47 35.98C230.26 30.01 249.81 40.27 256.06 58.87C262.3 77.46 252.91 97.45 235.12 103.43C234.64 103.58 234.15 103.65 233.66 103.65Z" fill="#002549"/>
<path d="M234.06 114.97C225.28 114.97 218.14 107.83 218.14 99.0501C218.14 90.2701 225.28 83.1301 234.06 83.1301C242.84 83.1301 249.98 90.2701 249.98 99.0501C249.98 107.83 242.84 114.97 234.06 114.97ZM234.06 92.3301C230.35 92.3301 227.34 95.3501 227.34 99.0501C227.34 102.75 230.36 105.77 234.06 105.77C237.76 105.77 240.78 102.75 240.78 99.0501C240.78 95.3501 237.77 92.3301 234.06 92.3301Z" fill="#002549"/>
<path d="M305.45 81.3201C303.53 81.3201 301.74 80.1101 301.09 78.1901C300.28 75.7801 301.58 73.1801 303.98 72.3701C316.96 68.0101 323.76 53.2401 319.13 39.4601C316.87 32.7401 312.28 27.2601 306.19 24.0401C300.18 20.8601 293.43 20.2601 287.19 22.3601C280.94 24.4601 275.92 29.0101 273.05 35.1701C270.14 41.4101 269.78 48.5501 272.04 55.2701C272.81 57.5701 273.87 59.7501 275.18 61.7401C276.58 63.8601 275.99 66.7101 273.87 68.1101C271.75 69.5101 268.9 68.9201 267.5 66.8001C265.75 64.1401 264.34 61.2501 263.32 58.2001C260.31 49.2301 260.8 39.6801 264.71 31.2901C268.66 22.8201 275.6 16.5501 284.26 13.6501C292.92 10.7401 302.24 11.5501 310.49 15.9201C318.67 20.2501 324.83 27.5701 327.84 36.5401C334.08 55.1301 324.69 75.1201 306.9 81.1001C306.43 81.2501 305.93 81.3201 305.45 81.3201Z" fill="#002549"/>
<path d="M305.85 92.64C297.07 92.64 289.93 85.5 289.93 76.7201C289.93 67.9401 297.07 60.8 305.85 60.8C314.63 60.8 321.77 67.9401 321.77 76.7201C321.76 85.5 314.62 92.64 305.85 92.64ZM305.85 70C302.14 70 299.13 73.0201 299.13 76.7201C299.13 80.43 302.15 83.4401 305.85 83.4401C309.55 83.4401 312.57 80.4201 312.57 76.7201C312.57 73.0201 309.55 70 305.85 70Z" fill="#002549"/>
<path d="M148 462.62L135.32 476.84C134.69 477.54 133.62 477.6 132.92 476.98C132.35 476.47 132.21 475.67 132.5 475.02L140.28 457.63C141.33 455.28 144.08 454.23 146.43 455.28C148.78 456.33 149.83 459.08 148.78 461.43C148.58 461.87 148.31 462.28 148 462.62Z" fill="#002549"/>
<path opacity="0.81" d="M287.36 121.43L344.33 103.66L364.2 158.02C364.2 158.01 345.58 114.4 287.36 121.43Z" fill="white"/>
<path opacity="0.81" d="M132.36 375.22L152.6 439.05L223.53 416C223.53 416.01 161.05 432.07 132.36 375.22Z" fill="white"/>
<path d="M294.71 11.9201C300.1 11.9201 305.49 13.2601 310.49 15.9101C318.67 20.2401 324.83 27.5601 327.84 36.5301C328.49 38.4501 328.86 40.3901 329.18 42.3301L338.04 39.6201C338.49 39.4801 338.94 39.4201 339.39 39.4201C341.33 39.4201 343.13 40.6501 343.76 42.5901L358.14 86.5901L447.69 354.34C447.7 354.37 447.69 354.4 447.7 354.44C447.71 354.47 447.73 354.49 447.74 354.52C447.79 354.7 447.75 354.89 447.78 355.08C447.85 355.5 447.91 355.92 447.87 356.33C447.84 356.56 447.75 356.76 447.69 356.98C447.59 357.37 447.47 357.74 447.27 358.08C447.23 358.16 447.23 358.25 447.18 358.32L425.25 392.03C424.69 392.88 423.87 393.53 422.91 393.86L123.73 498.17C123.24 498.34 122.73 498.43 122.22 498.43C121.51 498.43 120.81 498.27 120.17 497.95C119.06 497.4 118.22 496.42 117.84 495.24L27.8101 213.58L12.8001 167.18C12.3601 165.83 12.5701 164.36 13.3701 163.19L33.1701 133.93C33.2501 133.81 33.4101 133.76 33.5001 133.65C33.8401 133.23 34.2301 132.9 34.7001 132.63C34.9001 132.51 35.0801 132.39 35.3001 132.3C35.4201 132.25 35.5101 132.15 35.6301 132.12L48.9201 128.06C48.4301 126.96 47.7301 125.97 47.3501 124.82C41.1101 106.23 50.5001 86.2401 68.2901 80.2601C71.7201 79.1101 75.2201 78.5601 78.6801 78.5601C93.1301 78.5601 106.84 88.1401 111.88 103.15C112.47 104.9 112.79 106.67 113.1 108.43L120.4 106.2C119.9 105.08 119.19 104.08 118.8 102.91C115.79 93.9401 116.28 84.3901 120.19 76.0001C124.13 67.5301 131.08 61.2601 139.74 58.3601C143.17 57.2101 146.67 56.6601 150.13 56.6601C164.58 56.6601 178.29 66.2401 183.33 81.2501C183.92 83.0201 184.25 84.8001 184.57 86.5801L193.21 83.9401C192.69 82.7901 191.96 81.7501 191.56 80.5401C188.55 71.5701 189.04 62.0201 192.95 53.6301C196.9 45.1601 203.84 38.8901 212.5 35.9901C215.93 34.8401 219.43 34.2901 222.89 34.2901C237.34 34.2901 251.05 43.8701 256.09 58.8801C256.7 60.6901 257.03 62.5101 257.35 64.3301L265.16 61.9401C264.58 60.6901 263.79 59.5401 263.35 58.2201C260.34 49.2501 260.83 39.7001 264.74 31.3101C268.69 22.8401 275.63 16.5701 284.29 13.6701C287.68 12.4901 291.2 11.9201 294.71 11.9201ZM294.71 -0.189941C289.85 -0.189941 285.04 0.600059 280.4 2.16006C268.56 6.13006 259.09 14.6601 253.73 26.1701C252.83 28.1001 252.06 30.0801 251.43 32.0901C243.39 25.7901 233.42 22.1501 222.86 22.1501C218.01 22.1501 213.22 22.9301 208.62 24.4801C196.78 28.4501 187.31 36.9801 181.95 48.4901C180.95 50.6301 180.12 52.8301 179.46 55.0701C171.29 48.4001 161.03 44.5201 150.12 44.5201C145.27 44.5201 140.48 45.3001 135.87 46.8501C124.03 50.8301 114.56 59.3501 109.2 70.8601C108.38 72.6201 107.67 74.4101 107.08 76.2401C99.0701 70.0201 89.1601 66.4301 78.6701 66.4301C73.8201 66.4301 69.0301 67.2101 64.4301 68.7601C43.0901 75.9401 30.6001 97.8001 33.8001 120.01L32.0901 120.53C31.3301 120.76 30.5201 121.11 29.7701 121.51C29.3401 121.72 28.9301 121.96 28.5101 122.21C27.2401 122.96 26.0501 123.9 25.0001 124.99C24.3001 125.65 23.6501 126.38 23.1501 127.12L3.34005 156.4C0.440054 160.69 -0.309943 165.98 1.28006 170.91L16.2901 217.31L106.3 498.92C107.67 503.19 110.75 506.78 114.75 508.78C117.05 509.93 119.63 510.54 122.21 510.54C124.09 510.54 125.94 510.23 127.71 509.61L426.9 405.28C430.37 404.07 433.39 401.71 435.4 398.62L457.33 364.9C457.69 364.35 458.02 363.73 458.29 363.1C458.86 361.92 459.18 360.85 459.38 360.09C459.39 360.09 459.73 359.05 459.89 357.69C460.08 356.06 459.95 354.67 459.83 353.76C459.76 352.85 459.6 351.9 459.37 351.12C459.34 351.02 459.31 350.92 459.28 350.82C459.24 350.69 459.2 350.57 459.16 350.45L369.63 82.7401L355.27 38.8101C353.02 31.9201 346.64 27.2901 339.39 27.2901C338.67 27.2901 337.95 27.3401 337.23 27.4301C332.78 17.8901 325.44 10.1101 316.15 5.20006C309.5 1.67006 302.08 -0.189941 294.71 -0.189941Z" fill="#002549"/>
</svg>
