<svg width="521" height="512" viewBox="0 0 521 512" fill="none" xmlns="http://www.w3.org/2000/svg">
<path d="M262.682 82.1914C282.092 82.3514 297.952 66.7414 298.102 47.3314C298.262 27.9214 282.652 12.0614 263.242 11.9114C243.832 11.7514 227.972 27.3614 227.822 46.7714C227.672 66.1714 243.282 82.0314 262.682 82.1914Z" fill="#BABABA"/>
<g opacity="0.5">
<path d="M288.892 62.2414C289.052 42.8314 273.442 26.9714 254.032 26.8214C244.482 26.7414 235.782 30.4914 229.402 36.6214C233.872 22.2014 247.372 11.7814 263.252 11.9014C282.662 12.0614 298.262 27.9114 298.112 47.3214C298.032 57.1714 293.902 66.0414 287.322 72.3714C288.312 69.1814 288.862 65.7714 288.892 62.2414Z" fill="white"/>
</g>
<path d="M236.962 86.2314C224.182 77.7214 215.802 63.1314 215.932 46.6714C216.142 20.7314 237.412 -0.198579 263.352 0.0014215C289.292 0.211421 310.222 21.4814 310.012 47.4214C309.912 59.9914 304.922 71.7614 295.962 80.5714C287.002 89.3814 275.152 94.1814 262.592 94.0814C253.122 94.0214 244.312 91.1314 236.962 86.2314ZM275.822 27.7014C272.192 25.2814 267.842 23.8614 263.162 23.8214C250.352 23.7214 239.842 34.0614 239.742 46.8714C239.642 59.6814 249.982 70.1914 262.792 70.2914C275.602 70.3914 286.112 60.0514 286.212 47.2414C286.272 39.1014 282.132 31.9014 275.822 27.7014Z" fill="#002D4C"/>
<path d="M93.012 214.291L91.662 382.891L428.862 385.601L430.212 217.001C430.962 123.881 356.082 47.8014 262.972 47.0514C239.692 46.8614 217.482 51.4014 197.242 59.7714C177.662 67.8714 159.932 79.5414 144.882 93.9914C113.232 124.361 93.392 166.981 93.012 214.291Z" fill="#F2B619"/>
<g opacity="0.5">
<path d="M93.012 214.291L91.662 382.891L177.742 383.581C178.052 383.351 178.212 383.231 178.212 383.231C178.212 383.231 116.862 292.831 120.732 185.831C121.982 151.351 131.942 120.281 144.882 93.9915C113.232 124.361 93.392 166.981 93.012 214.291Z" fill="#002D4C"/>
</g>
<path d="M85.0621 392.801C84.3821 392.351 83.7521 391.831 83.1721 391.241C80.9621 388.991 79.7321 385.951 79.7521 382.791L81.1021 214.191C81.4921 165.981 100.632 120.801 134.992 86.9813C169.362 53.1613 214.842 34.7513 263.052 35.1413C311.262 35.5313 356.442 54.6713 390.262 89.0313C424.082 123.401 442.492 168.881 442.102 217.091L440.752 385.691C440.702 392.261 435.332 397.551 428.752 397.501L91.5521 394.791C89.2321 394.781 86.9721 394.081 85.0621 392.801ZM348.252 85.0113C323.152 68.2913 293.732 59.2013 262.882 58.9513C176.482 58.2613 105.622 127.981 104.922 214.391L103.662 371.091L417.052 373.611L418.312 216.911C418.652 175.061 402.662 135.571 373.312 105.741C365.592 97.9013 357.192 90.9713 348.252 85.0113Z" fill="#002D4C"/>
<path d="M11.912 389.391C11.752 409.741 25.412 424.711 49.172 435.631C60.762 440.951 74.752 445.311 90.722 448.851C134.972 458.661 194.352 462.211 259.642 462.741C324.932 463.261 384.362 460.671 428.752 451.571C477.602 441.561 508.262 423.671 508.502 393.391C508.882 346.301 397.912 321.151 260.782 320.051C123.642 318.931 12.282 342.301 11.912 389.391Z" fill="#F2B619"/>
<g opacity="0.5">
<path d="M401.024 431.462C401.124 419.019 338.024 408.424 260.085 407.798C182.147 407.172 118.884 416.751 118.784 429.194C118.684 441.637 181.785 452.232 259.723 452.858C337.662 453.484 400.924 443.905 401.024 431.462Z" fill="#002D4C"/>
</g>
<path d="M28.4921 437.801C26.9021 436.741 25.3821 435.661 23.9221 434.551C7.90206 422.371 -0.147942 407.141 0.0020581 389.291C0.122058 373.791 8.49206 360.161 24.8621 348.761C38.3521 339.371 57.6121 331.411 82.0821 325.111C127.472 313.431 189.292 307.551 260.862 308.131C332.432 308.711 394.142 315.571 439.342 327.981C463.712 334.671 482.832 342.941 496.182 352.551C512.372 364.211 520.512 377.981 520.392 393.481C520.252 411.331 511.952 426.421 495.742 438.351C482.162 448.341 463.262 455.991 437.942 461.761C397.072 471.071 338.702 475.281 259.522 474.651C180.332 474.011 122.052 468.861 81.3321 458.901C58.8621 453.381 41.5021 446.461 28.4921 437.801ZM480.052 370.311C449.102 349.691 375.052 332.861 260.682 331.941C192.142 331.391 130.832 337.151 88.0321 348.171C47.3521 358.641 23.9421 373.701 23.8121 389.491C23.7321 399.711 28.3421 408.001 38.3421 415.611C48.9521 423.681 65.3221 430.461 87.0021 435.771C125.912 445.291 182.412 450.221 259.722 450.841C337.042 451.461 393.612 447.441 432.662 438.551C454.422 433.591 470.902 427.081 481.642 419.181C491.762 411.741 496.512 403.521 496.592 393.301C496.652 385.511 491.102 377.671 480.052 370.311Z" fill="#002D4C"/>
<path d="M99.2321 421.581C105.362 418.011 111.822 415.221 118.352 412.811C124.892 410.401 131.532 408.421 138.212 406.661C139.882 406.231 141.552 405.811 143.232 405.411L148.262 404.241C151.622 403.511 154.992 402.812 158.362 402.182C165.102 400.892 171.872 399.811 178.652 398.891C205.772 395.211 233.012 393.871 260.182 393.971C287.352 394.131 314.582 395.751 341.682 399.701C348.452 400.681 355.212 401.841 361.952 403.191C365.322 403.861 368.692 404.581 372.042 405.351L377.072 406.571C378.742 406.991 380.422 407.432 382.092 407.872C388.762 409.692 395.402 411.751 401.942 414.231C408.482 416.711 414.942 419.581 421.102 423.241C423.782 424.831 424.662 428.301 423.062 430.981C421.702 433.271 418.962 434.251 416.522 433.481L416.382 433.441C404.232 429.631 391.392 427.331 378.462 425.531C371.992 424.611 365.472 423.901 358.942 423.241C355.682 422.911 352.392 422.631 349.122 422.331L339.272 421.571C312.982 419.661 286.502 418.881 259.982 418.561C233.472 418.281 206.962 418.471 180.612 419.791L170.732 420.331C167.452 420.561 164.162 420.771 160.882 421.021C154.322 421.531 147.772 422.101 141.262 422.881C128.252 424.401 115.312 426.411 102.942 430.001L102.842 430.031C100.392 430.741 97.8221 429.331 97.1121 426.881C96.5121 424.781 97.4421 422.621 99.2321 421.581Z" fill="#002D4C"/>
<path d="M189.692 408.461L189.532 428.541C189.442 439.411 191.832 449.731 196.162 458.961C207.312 482.711 231.352 499.251 259.342 499.471C287.232 499.691 311.462 483.661 323.042 460.231C327.602 451.011 330.192 440.641 330.282 429.671L330.442 409.591C308.832 407.571 285.062 406.451 260.092 406.251C235.112 406.061 211.322 406.791 189.692 408.461Z" fill="#BABABA"/>
<g opacity="0.5">
<path d="M189.692 408.461L189.532 428.541C189.442 439.411 191.832 449.731 196.162 458.961C204.412 442.631 222.132 423.721 259.942 424.021C297.942 424.331 315.212 443.721 323.032 460.231C327.592 451.011 330.182 440.641 330.272 429.671L330.432 409.591C308.822 407.571 285.052 406.451 260.082 406.251C235.112 406.061 211.322 406.791 189.692 408.461Z" fill="#002D4C"/>
</g>
<path d="M214.412 497.701C209.712 494.571 205.312 490.941 201.252 486.821C185.842 471.161 177.442 450.431 177.622 428.451L177.782 408.371C177.832 402.191 182.602 397.071 188.772 396.601C210.702 394.911 234.732 394.151 260.172 394.361C285.622 394.561 309.622 395.701 331.532 397.751C337.692 398.321 342.382 403.521 342.332 409.701L342.172 429.781C341.812 475.141 304.602 511.761 259.242 511.391C243.042 511.251 227.592 506.471 214.412 497.701ZM201.502 419.581L201.432 428.641C201.302 444.261 207.272 458.991 218.222 470.121C229.172 481.251 243.812 487.451 259.422 487.581C291.662 487.841 318.102 461.821 318.362 429.581L318.432 420.521C300.202 419.121 280.592 418.321 259.982 418.161C239.382 417.991 219.762 418.471 201.502 419.581Z" fill="#002D4C"/>
<g opacity="0.5">
<path d="M262.792 68.8914C262.792 68.8914 322.712 71.5114 366.522 124.671C396.902 161.521 401.332 225.611 401.192 261.451C401.142 274.051 389.532 283.431 377.222 280.781C377.032 280.741 376.832 280.701 376.642 280.661C366.612 278.541 359.862 269.091 361.092 258.911C364.452 231.121 367.292 178.531 348.572 138.791C321.912 82.2113 262.792 68.8914 262.792 68.8914Z" fill="white"/>
</g>
<g opacity="0.5">
<path d="M297.732 471.601C297.732 471.601 284.762 487.191 255.162 485.531C233.282 484.301 217.382 467.321 209.912 450.911C206.442 443.291 212.232 434.682 220.592 434.952C225.142 435.092 229.172 437.952 230.802 442.202C234.072 450.722 241.362 464.451 255.292 468.411C275.942 474.281 297.732 471.601 297.732 471.601Z" fill="white"/>
</g>
<g opacity="0.5">
<path d="M458.822 425.621C458.822 425.621 485.682 412.991 485.842 393.191C486.002 373.391 375.842 338.261 266.772 337.911C157.702 337.571 96.5121 360.621 96.5121 360.621C96.5121 360.621 193.012 338.921 313.822 355.941C434.632 372.971 466.612 389.281 464.912 401.041C463.212 412.821 458.822 425.621 458.822 425.621Z" fill="white"/>
</g>
<g opacity="0.5">
<path d="M342.808 386.646C343.218 382.679 322.46 377.282 296.442 374.591C270.424 371.899 249 372.933 248.59 376.899C248.18 380.865 268.939 386.263 294.956 388.954C320.974 391.646 342.398 390.612 342.808 386.646Z" fill="white"/>
</g>
</svg>
