<svg width="557" height="606" viewBox="0 0 557 606" fill="none" xmlns="http://www.w3.org/2000/svg">
<path d="M206.92 7.52979C206.92 7.52979 153.99 30.2098 146.43 30.2098C138.87 30.2098 85.9399 83.1398 85.9399 83.1398L70.9399 162.79L83.7499 231.04L124.31 256.16L145.66 281.24L174.12 284.2L180.52 306.37L176.67 347.76L186.93 399.71L237.16 446.06L363.82 550.18C363.82 550.18 441.3 544.35 448.87 544.35C456.43 544.35 539.6 461.18 539.6 461.18L544.16 399.71L521.39 329.08L460.9 284.21C460.9 284.21 438.73 288.31 438.13 278.34C437.52 268.38 437.52 253.26 437.52 253.26C437.52 253.26 445.08 200.33 437.52 192.77C429.96 185.21 414.84 147.4 414.84 147.4L322.67 69.9698L263.62 18.8698L206.92 7.52979Z" fill="#F5CAFF"/>
<path d="M350.17 175.17C350.57 173.88 237.16 83.1499 229.6 83.1499C222.04 83.1499 191.58 93.5999 180.35 92.1499C169.12 90.6999 161.55 113.39 161.55 113.39L138.87 151.19L146.43 188.99L176.67 211.67L206.91 241.91L229.59 234.35L307.54 201.84L358.13 204.1L350.17 175.17Z" fill="#F5CAFF"/>
<path d="M259.84 378.02L252.28 362.9L322.67 367.3L363.82 348.8L395.94 325.09L411.8 316.78L433.15 347.4L467.31 378.02L479.11 415.82L464.54 451.27L433.75 476.31H408.24L367.35 470.35L259.84 378.02Z" fill="#F5CAFF"/>
<path d="M534.53 408.68C534.53 435.22 525.27 461.12 508.46 481.63L494.9 498.16C472.94 524.96 440.42 540.33 405.66 540.33C379.07 540.33 353.17 531.08 332.66 514.27L228.91 429.27C202.11 407.3 186.75 374.76 186.76 340C186.75 325.57 189.52 311.26 194.99 297.46C197.66 290.8 196.43 283.23 191.78 277.72C187.19 272.24 179.94 269.75 172.89 271.23C171.04 271.61 169.49 271.81 168.36 271.75C168.14 271.74 167.9 271.74 167.67 271.75C162.68 271.87 157.24 269.92 152.84 266.32L124.48 243.09C121.42 240.57 118.47 237.89 115.74 235.15C94.2099 213.49 82.3399 184.59 82.3399 153.8C82.3399 127.26 91.5899 101.36 108.39 80.87C108.44 80.8 108.49 80.74 108.55 80.67C108.6 80.6 108.65 80.53 108.71 80.46L121.94 64.34C143.9 37.53 176.44 22.17 211.19 22.17C237.76 22.17 263.66 31.42 284.16 48.22L387.91 133.25C414.71 155.22 430.09 187.76 430.08 222.53C430.08 236.99 427.3 251.3 421.84 265.03C419.19 271.76 420.42 279.32 425.05 284.79C429.63 290.26 436.89 292.77 443.94 291.28C445.45 290.97 447.08 290.8 449.09 290.74C454.36 290.75 459.73 292.67 463.98 296.16L492.35 319.41C519.16 341.38 534.53 373.91 534.53 408.68ZM547.85 456.9C553.6 441.57 556.7 425.24 556.7 408.68C556.7 367.24 538.37 328.45 506.41 302.26L478.05 279.01C469.84 272.28 459.48 268.58 448.87 268.58C447.16 268.62 445.59 268.71 444.11 268.86C449.52 253.85 452.26 238.28 452.26 222.53C452.27 181.1 433.94 142.3 401.97 116.11L298.22 31.08C273.77 11.04 242.89 0 211.25 0C169.78 0 130.98 18.33 104.8 50.28L91.3799 66.64C91.2599 66.77 91.1599 66.91 91.0499 67.05C71.1299 91.46 60.1699 122.26 60.1699 153.81C60.1699 190.5 74.3299 224.95 100.04 250.81C103.3 254.06 106.77 257.22 110.41 260.22L138.81 283.49C147.2 290.35 157.84 294.12 168.01 293.93C169.52 293.96 171.07 293.89 172.74 293.7C167.32 308.77 164.6 324.32 164.6 340.01C164.6 381.44 182.91 420.23 214.88 446.42L229.17 458.13L251.42 476.37L318.61 531.42C343.07 551.47 373.96 562.5 405.61 562.5C447.09 562.5 485.86 544.17 512.04 512.22L525.59 495.7C530.29 489.97 534.45 483.85 538.14 477.48L547.85 456.9Z" fill="#002549"/>
<path d="M369.42 213.09C376.23 206.98 367.99 190.58 363.47 182.67C359.36 175.48 353.84 187.87 347.51 182.67L237.9 101.19C225.7 91.2202 226.92 69.9802 211.2 69.9702C211.11 69.9702 210.87 69.9702 210.71 69.9802C210.69 69.9802 210.64 69.9802 210.64 69.9802C190.45 70.1902 171.62 79.1902 158.96 94.6502L145.4 111.19C135.44 123.34 130.16 138.09 130.15 153.86C130.16 174.22 139.17 193.26 154.84 206.1L183.19 229.34C187.41 232.8 190.33 237.66 191.44 243.06C192.94 250.38 198.59 256.27 205.84 258.06C207.41 258.44 208.97 258.63 210.51 258.63C216.38 258.63 221.88 256.02 225.58 251.48L226.36 250.53C228.46 247.98 230.78 245.44 233.65 242.53L235.45 240.72C238 238.27 240.59 235.97 243.25 233.82L243.84 233.4C244.12 233.19 244.39 232.96 244.65 232.73C247.42 230.64 249.86 228.91 252.33 227.28C252.42 227.22 252.54 227.14 252.66 227.06L253.78 226.31C256.78 224.41 259.96 222.59 263.05 221.03L263.66 220.73C263.78 220.68 263.87 220.63 263.97 220.58C270.76 217.19 277.89 214.46 285.13 212.48C285.22 212.45 285.31 212.43 285.4 212.41C301.97 207.98 318.66 207.14 335 209.94C338.47 210.53 341.81 211.99 344.96 214.29C352.32 219.66 362.6 219.16 369.42 213.09ZM346.69 190.21C344.1 189.25 341.45 188.53 338.73 188.07C319.18 184.72 299.25 185.71 279.51 191.02C279.38 191.05 279.26 191.09 279.14 191.13C270.57 193.49 262.16 196.7 254.14 200.71C254.07 200.74 253.98 200.78 253.9 200.82L253.12 201.21C249.31 203.14 245.51 205.32 241.73 207.71L240.39 208.6C240.18 208.73 239.98 208.87 239.82 208.99C237.11 210.75 234.2 212.83 230.97 215.29C230.76 215.46 230.54 215.63 230.33 215.81L229.68 216.29C226.13 219.15 223.07 221.87 219.93 224.9L217.94 226.89C215.63 229.22 213.63 231.36 211.78 233.45C209.05 225.15 204 217.73 197.23 212.19L168.88 188.95H168.87C158.36 180.34 152.32 167.55 152.31 153.87C152.32 143.3 155.85 133.41 162.54 125.27L176.1 108.72C184.62 98.3202 197.32 92.2902 210.97 92.1702C211.09 92.1702 211.22 92.1602 211.34 92.1502H211.35C221.84 92.2002 231.68 95.7302 239.82 102.39L343.55 187.4C344.65 188.28 345.69 189.23 346.69 190.21Z" fill="#002549"/>
<path d="M274.7 270.01C268.23 275.06 265.48 283.88 268.01 291.59C270.67 299.6 277.93 305.03 286.09 305.12C287.53 305.14 288.75 305.23 289.8 305.42C289.93 305.44 290.07 305.46 290.19 305.48C293.53 306.03 297.09 306.32 301.08 306.38C316.13 306.38 330.83 301.36 342.61 292.25C349.16 287.2 351.8 278.52 349.16 270.67C346.5 262.8 339.17 257.48 330.91 257.38C329.44 257.36 328.16 257.27 326.92 257.06C320.56 255.97 313.82 255.86 306.95 256.77C303.3 257.25 299.56 258.06 295.87 259.2L294.73 259.54C292.76 260.18 291.31 260.74 289.78 261.36L287.15 262.53C287 262.59 286.86 262.66 286.71 262.73C286.7 262.74 286.7 262.74 286.69 262.74C285.2 263.42 284.03 263.99 283.18 264.45C281.07 265.62 279.1 266.83 277.22 268.14L275.32 269.54C275.07 269.73 274.9 269.85 274.7 270.01ZM294.6 283.73C296 283.36 297.33 282.71 298.48 281.77C299.47 281.36 300.35 281.04 301.33 280.71L302.28 280.43C304.89 279.63 307.4 279.08 309.83 278.76C314.22 278.18 318.65 278.21 322.67 278.84C316.11 282.34 308.71 284.22 301.24 284.22C298.84 284.18 296.62 284.02 294.6 283.73Z" fill="#002549"/>
<path d="M471.46 451.3C481.44 439.13 486.71 424.37 486.71 408.63C486.68 388.27 458.93 387.03 443.27 374.2L411.35 342.28C407.16 338.83 412.45 347.68 411.35 342.28C409.88 334.99 402.64 328.13 395.39 326.32C388.13 324.51 400.13 320.52 395.39 326.32L390.48 312.04C364.47 343.76 323.25 359.57 281.84 352.58C278.41 351.99 275.05 350.52 271.91 348.23C264.54 342.86 254.28 343.36 247.48 349.4C240.56 355.64 238.95 365.57 243.52 373.59C243.52 373.6 243.53 373.6 243.53 373.61C247.64 380.81 252.93 387.09 259.24 392.27L363.02 477.3C375.23 487.27 389.99 492.54 405.7 492.54C426.06 492.53 445.09 483.53 457.92 467.87L471.46 451.3ZM425.26 465.95C419.24 468.82 412.58 470.35 405.68 470.36C398.41 470.36 391.46 468.64 385.15 465.39L357.17 443.83L273.29 375.11C272.2 374.22 271.15 373.27 270.16 372.28C272.74 373.24 275.4 373.97 278.11 374.43C326.18 382.54 373.97 364.92 405.09 329.08C407.83 337.38 412.86 344.78 419.6 350.32L447.98 373.56C458.48 382.16 464.52 394.95 464.54 408.63C464.54 419.18 461 429.08 454.3 437.25L448.05 444.88L425.26 465.95Z" fill="#002549"/>
<path d="M146.75 50.6997C146.75 50.6997 93.82 73.3797 86.26 73.3797C78.7 73.3797 25.77 126.31 25.77 126.31L10.77 205.96L23.58 274.22L64.14 299.34L85.49 324.42L113.95 327.38L120.35 349.55L116.5 390.94L126.76 442.89L176.99 489.24L303.65 593.36C303.65 593.36 381.13 587.53 388.7 587.53C396.27 587.53 479.43 504.36 479.43 504.36L483.99 442.89L461.22 372.26L400.73 327.39C400.73 327.39 378.56 331.49 377.96 321.52C377.35 311.56 377.35 296.44 377.35 296.44C377.35 296.44 384.91 243.51 377.35 235.95C369.79 228.39 354.67 190.58 354.67 190.58L262.5 113.15L203.45 62.0497L146.75 50.6997Z" fill="#E6E6E6"/>
<path d="M290 218.34C290.4 217.05 176.99 126.32 169.43 126.32C161.87 126.32 131.41 136.77 120.18 135.32C108.94 133.88 101.38 156.56 101.38 156.56L78.7 194.36L86.2599 232.16L116.5 254.84L146.74 285.08L169.42 277.52L247.37 245.01L297.96 247.27L290 218.34Z" fill="#BACDDD"/>
<path d="M199.67 421.19L192.11 406.07L262.5 410.47L303.65 391.97L335.77 368.26L351.63 359.95L372.98 390.57L407.14 421.19L418.94 458.99L404.37 494.44L373.57 519.48H348.07L307.18 513.52L199.67 421.19Z" fill="#BACDDD"/>
<path d="M474.36 451.85C474.36 478.39 465.1 504.29 448.29 524.8L434.73 541.33C412.77 568.13 380.25 583.5 345.49 583.5C318.9 583.5 293 574.25 272.49 557.44L168.75 472.44C141.95 450.47 126.59 417.93 126.6 383.17C126.59 368.74 129.36 354.43 134.83 340.63C137.5 333.97 136.27 326.4 131.62 320.89C127.03 315.41 119.78 312.92 112.73 314.4C110.88 314.78 109.33 314.98 108.2 314.92C107.98 314.91 107.74 314.91 107.51 314.92C102.52 315.04 97.08 313.09 92.68 309.49L64.32 286.26C61.26 283.74 58.31 281.06 55.58 278.32C34.05 256.66 22.18 227.76 22.18 196.97C22.18 170.43 31.43 144.53 48.23 124.04C48.28 123.97 48.33 123.91 48.39 123.84C48.44 123.77 48.49 123.7 48.55 123.63L61.78 107.51C83.74 80.6999 116.28 65.3399 151.03 65.3399C177.6 65.3399 203.5 74.5899 224 91.3899L327.75 176.42C354.55 198.39 369.93 230.93 369.92 265.7C369.92 280.16 367.14 294.47 361.68 308.2C359.03 314.93 360.26 322.49 364.89 327.96C369.47 333.43 376.73 335.94 383.78 334.45C385.29 334.14 386.92 333.97 388.93 333.91C394.2 333.92 399.57 335.84 403.82 339.33L432.19 362.58C458.99 384.55 474.36 417.08 474.36 451.85ZM487.68 500.07C493.43 484.74 496.53 468.41 496.53 451.85C496.53 410.41 478.2 371.62 446.24 345.43L417.88 322.18C409.67 315.45 399.31 311.75 388.7 311.75C386.99 311.79 385.42 311.88 383.94 312.03C389.35 297.02 392.09 281.45 392.09 265.7C392.1 224.27 373.77 185.47 341.8 159.28L238.05 74.2499C213.6 54.2099 182.72 43.1699 151.08 43.1699C109.61 43.1699 70.81 61.4999 44.63 93.4499L31.21 109.81C31.09 109.94 30.99 110.08 30.88 110.22C10.96 134.63 0 165.43 0 196.98C0 233.67 14.16 268.12 39.87 293.98C43.13 297.23 46.6 300.39 50.24 303.39L78.64 326.66C87.03 333.52 97.67 337.29 107.84 337.1C109.35 337.13 110.9 337.06 112.57 336.87C107.15 351.94 104.43 367.49 104.43 383.18C104.43 424.61 122.74 463.4 154.71 489.59L169 501.3L191.25 519.54L258.44 574.59C282.9 594.64 313.79 605.67 345.44 605.67C386.92 605.67 425.69 587.34 451.87 555.39L465.42 538.87C470.12 533.14 474.28 527.02 477.97 520.65L487.68 500.07Z" fill="#002549"/>
<path d="M309.25 256.26C316.06 250.15 317.71 240 313.19 232.09C309.08 224.9 303.78 218.61 297.45 213.41L193.69 128.4C181.49 118.43 166.75 113.15 151.03 113.14C150.94 113.14 150.7 113.14 150.54 113.15C150.52 113.15 150.47 113.15 150.47 113.15C130.28 113.36 111.45 122.36 98.79 137.82L85.23 154.36C75.27 166.51 69.99 181.26 69.98 197.03C69.99 217.39 79 236.43 94.67 249.27L123.02 272.51C127.24 275.97 130.16 280.83 131.27 286.23C132.77 293.55 138.42 299.44 145.67 301.23C147.24 301.61 148.8 301.8 150.34 301.8C156.21 301.8 161.71 299.19 165.41 294.65L166.19 293.7C168.29 291.15 170.61 288.61 173.48 285.7L175.28 283.89C177.83 281.44 180.42 279.14 183.08 276.99L183.67 276.57C183.95 276.36 184.22 276.13 184.48 275.9C187.25 273.81 189.69 272.08 192.16 270.45C192.25 270.39 192.37 270.31 192.49 270.23L193.61 269.48C196.61 267.58 199.79 265.76 202.88 264.2L203.49 263.9C203.61 263.85 203.7 263.8 203.8 263.75C210.59 260.36 217.72 257.63 224.96 255.65C225.05 255.62 225.14 255.6 225.23 255.58C241.8 251.15 258.49 250.31 274.83 253.11C278.3 253.7 281.64 255.16 284.79 257.46C292.15 262.83 302.43 262.33 309.25 256.26ZM286.52 233.38C283.93 232.42 281.28 231.7 278.56 231.24C259.01 227.89 239.08 228.88 219.34 234.19C219.21 234.22 219.09 234.26 218.97 234.3C210.4 236.66 201.99 239.87 193.97 243.88C193.9 243.91 193.81 243.95 193.73 243.99L192.95 244.38C189.14 246.31 185.34 248.49 181.56 250.88L180.22 251.77C180.01 251.9 179.81 252.04 179.65 252.16C176.94 253.92 174.03 256 170.8 258.46C170.59 258.63 170.37 258.8 170.16 258.98L169.51 259.46C165.96 262.32 162.9 265.04 159.76 268.07L157.77 270.06C155.46 272.39 153.46 274.53 151.61 276.62C148.88 268.32 143.83 260.9 137.06 255.36L108.71 232.12H108.7C98.19 223.51 92.15 210.72 92.14 197.04C92.15 186.47 95.68 176.58 102.37 168.44L115.93 151.89C124.45 141.49 137.15 135.46 150.8 135.34C150.92 135.34 151.05 135.33 151.17 135.32H151.18C161.67 135.37 171.51 138.9 179.65 145.56L283.38 230.57C284.48 231.45 285.52 232.4 286.52 233.38Z" fill="#002549"/>
<path d="M230.9 319.85L268.29 318.3C268.29 318.3 256.71 331.55 262.5 331.16C268.29 330.77 230.87 330.77 230.87 330.77L230.9 319.85Z" fill="#BACDDD"/>
<path d="M214.53 313.18C208.06 318.23 205.31 327.05 207.84 334.76C210.5 342.77 217.76 348.19 225.92 348.29C227.36 348.31 228.58 348.4 229.63 348.59C229.76 348.61 229.9 348.63 230.02 348.65C233.36 349.2 236.92 349.49 240.91 349.55C255.96 349.55 270.66 344.53 282.44 335.42C288.99 330.37 291.62 321.69 288.99 313.84C286.33 305.97 279 300.65 270.74 300.55C269.27 300.53 267.99 300.44 266.75 300.23C260.39 299.14 253.65 299.03 246.78 299.94C243.13 300.42 239.39 301.23 235.7 302.37L234.56 302.71C232.59 303.35 231.14 303.91 229.61 304.53L226.98 305.7C226.83 305.76 226.69 305.83 226.54 305.9C226.53 305.91 226.53 305.91 226.52 305.91C225.03 306.59 223.86 307.16 223.01 307.62C220.9 308.79 218.93 310 217.05 311.31L215.15 312.71C214.9 312.9 214.73 313.02 214.53 313.18ZM234.43 326.9C235.83 326.53 237.16 325.88 238.31 324.94C239.3 324.53 240.18 324.21 241.16 323.88L242.11 323.6C244.72 322.8 247.23 322.25 249.66 321.93C254.05 321.35 258.48 321.38 262.5 322.01C255.94 325.51 248.54 327.39 241.07 327.39C238.67 327.35 236.45 327.19 234.43 326.9Z" fill="#002549"/>
<path d="M411.29 494.47C421.27 482.3 426.54 467.54 426.54 451.8C426.51 431.44 417.52 412.42 401.86 399.59L373.5 376.36C369.31 372.91 366.37 368.03 365.27 362.63C363.8 355.34 358.16 349.44 350.9 347.64C343.64 345.83 335.87 348.41 331.13 354.21L330.31 355.22C304.3 386.94 263.08 402.75 221.67 395.76C218.24 395.17 214.88 393.7 211.74 391.41C204.37 386.04 194.11 386.54 187.31 392.58C180.39 398.82 178.78 408.75 183.35 416.77C183.35 416.78 183.36 416.78 183.36 416.79C187.47 423.99 192.76 430.27 199.07 435.45L302.85 520.48C315.06 530.45 329.82 535.72 345.53 535.72C365.89 535.71 384.92 526.71 397.75 511.05L411.29 494.47ZM365.09 509.12C359.07 511.99 352.41 513.52 345.51 513.53C338.24 513.53 331.29 511.81 324.98 508.56L297 487L213.12 418.28C212.03 417.39 210.98 416.44 209.99 415.45C212.57 416.41 215.23 417.14 217.94 417.6C266.01 425.71 313.8 408.09 344.92 372.25C347.66 380.55 352.69 387.95 359.43 393.49L387.81 416.73C398.31 425.33 404.35 438.12 404.37 451.8C404.37 462.35 400.83 472.25 394.13 480.42L387.88 488.05L365.09 509.12Z" fill="#002549"/>
</svg>
