<svg width="564" height="510" viewBox="0 0 564 510" fill="none" xmlns="http://www.w3.org/2000/svg">
<path d="M532.141 69.4007C528.501 66.0707 524.511 63.1207 520.231 60.6107L475.691 27.7207L429.691 50.6307L136.391 49.5507C97.1607 49.4107 65.2407 81.0907 65.1007 120.321L64.5307 276.431L27.9507 344.021L91.2507 391.911C103.301 401.461 118.521 407.191 135.081 407.251L323.491 407.941L339.171 428.451L339.051 460.421L395.411 502.021L468.021 408.471L483.191 408.531C522.421 408.671 554.341 376.991 554.481 337.761L555.271 122.121C555.361 101.251 546.421 82.4507 532.141 69.4007Z" fill="#FFC7E3"/>
<path d="M396.971 509.811C394.851 510.231 392.561 509.791 390.691 508.411L334.331 466.811C332.291 465.311 331.091 462.921 331.101 460.391L331.211 431.121L319.551 415.871L135.051 415.191C117.191 415.121 100.361 409.241 86.3806 398.191L23.1606 350.361C20.0306 347.991 19.1006 343.691 20.9706 340.241L56.6006 274.411L57.1706 120.291C57.2506 99.1908 65.5406 79.3907 80.5106 64.5307C95.4806 49.6707 115.341 41.5207 136.441 41.6007L427.851 42.6707L472.161 20.6007C474.831 19.2707 478.021 19.5507 480.431 21.3207L524.651 53.9707C529.251 56.7107 533.581 59.9207 537.531 63.5307C553.961 78.5407 563.341 99.9107 563.261 122.151L562.471 337.791C562.391 358.891 554.101 378.691 539.131 393.551C524.161 408.411 504.301 416.551 483.201 416.481L471.941 416.441L401.731 506.901C400.471 508.461 398.781 509.451 396.971 509.811ZM347.021 456.421L393.891 491.021L461.741 403.601C463.251 401.651 465.581 400.521 468.051 400.531L483.221 400.591C500.071 400.651 515.931 394.151 527.891 382.281C539.851 370.411 546.471 354.591 546.531 337.741L547.321 122.101C547.391 104.341 539.891 87.2707 526.771 75.2807C523.531 72.3207 519.971 69.6908 516.191 67.4707C515.951 67.3307 515.721 67.1807 515.501 67.0107L474.871 37.0107L433.231 57.7507C432.121 58.3007 430.901 58.5907 429.661 58.5807L136.361 57.5007C119.511 57.4407 103.651 63.9407 91.6906 75.8107C79.7306 87.6807 73.1106 103.501 73.0506 120.351L72.4806 276.461C72.4806 277.771 72.1506 279.061 71.5206 280.211L38.1906 341.801L96.0406 385.571C96.0906 385.611 96.1406 385.641 96.1806 385.681C107.351 394.541 120.811 399.251 135.101 399.301L323.511 399.991C325.981 400.001 328.301 401.151 329.801 403.111L345.481 423.621C346.551 425.011 347.121 426.721 347.111 428.481L347.021 456.421Z" fill="#002549"/>
<path d="M428.151 9.23066L80.0307 7.95066C40.8007 7.81066 8.89066 39.4907 8.74066 78.7207L7.95066 294.361C7.81066 333.591 39.4907 365.511 78.7207 365.651L267.131 366.341L339.051 460.421L411.661 366.871L426.831 366.931C466.061 367.071 497.981 335.391 498.121 296.161L498.911 80.5207C499.061 41.2907 467.381 9.37066 428.151 9.23066Z" fill="#D80030"/>
<g opacity="0.5">
<path d="M485.01 38.0407C474.11 31.1407 461.2 27.1207 447.34 27.0707L194.73 26.1407C193.6 33.8507 170.34 40.0707 141.79 40.1407C113.36 40.2107 90.1404 34.1707 88.7904 26.5107C54.4904 31.4307 28.0704 60.8707 27.9404 96.5507L27.1504 312.191C27.1004 328.101 32.2704 342.801 41.0604 354.681C21.0904 342.041 7.87042 319.731 7.96042 294.361L8.75042 78.7207C8.89042 39.4907 40.8104 7.81066 80.0304 7.95066L428.15 9.23066C451.47 9.32066 472.13 20.6307 485.01 38.0407Z" fill="white"/>
</g>
<path d="M340.611 468.22C340.091 468.32 339.561 468.38 339.031 468.37C336.561 468.36 334.241 467.21 332.741 465.25L263.191 374.28L78.6905 373.6C35.1405 373.44 -0.159458 337.88 0.000541768 294.33L0.790542 78.6904C0.870542 57.5904 9.16054 37.7904 24.1305 22.9304C39.1005 8.07045 58.9605 -0.0695523 80.0605 0.00044774L428.181 1.28045C449.281 1.36045 469.081 9.65045 483.941 24.6204C498.801 39.5904 506.941 59.4504 506.871 80.5504L506.081 296.19C506.001 317.29 497.711 337.09 482.741 351.95C467.771 366.81 447.911 374.95 426.811 374.88L415.551 374.84L345.341 465.3C344.151 466.82 342.471 467.84 340.611 468.22ZM67.3005 17.1204C55.2805 19.5204 44.2305 25.3804 35.3305 34.2104C23.3705 46.0804 16.7505 61.9005 16.6905 78.7505L15.9005 294.39C15.7705 329.17 43.9705 357.57 78.7505 357.7L267.161 358.39C269.631 358.4 271.951 359.55 273.451 361.51L339.101 447.39L405.381 361.99C406.891 360.04 409.221 358.91 411.691 358.92L426.861 358.98C431.181 359 435.431 358.58 439.571 357.75C451.591 355.35 462.641 349.49 471.531 340.66C483.491 328.79 490.111 312.97 490.171 296.12L490.961 80.4804C491.021 63.6304 484.521 47.7704 472.651 35.8104C460.781 23.8504 444.961 17.2304 428.111 17.1704L80.0005 15.9004C75.6905 15.8804 71.4305 16.3004 67.3005 17.1204Z" fill="#002549"/>
<path d="M126.375 207.047C142.428 203.843 152.846 188.232 149.642 172.178C146.438 156.124 130.827 145.707 114.774 148.911C98.7197 152.114 88.3026 167.726 91.5061 183.779C94.7097 199.833 110.321 210.25 126.375 207.047Z" fill="#FFD62C"/>
<path d="M271.748 195.74C280.833 182.124 277.16 163.721 263.543 154.636C249.927 145.551 231.524 149.224 222.439 162.84C213.354 176.456 217.027 194.86 230.643 203.945C244.259 213.03 262.663 209.357 271.748 195.74Z" fill="#FFD62C"/>
<path d="M387.775 196.948C396.861 183.332 393.187 164.929 379.571 155.844C365.955 146.759 347.552 150.432 338.466 164.048C329.381 177.664 333.054 196.068 346.671 205.153C360.287 214.238 378.69 210.565 387.775 196.948Z" fill="#FFD62C"/>
</svg>
