<svg width="554" height="512" viewBox="0 0 554 512" fill="none" xmlns="http://www.w3.org/2000/svg">
<path d="M436.762 103.032L333.972 42.2817L315.352 73.7917C247.262 78.0317 182.402 114.852 145.072 178.002C107.742 241.162 106.762 315.732 135.872 377.432L117.252 408.942L220.042 469.702C321.292 529.552 451.882 495.982 511.732 394.732C571.572 293.472 538.012 162.882 436.762 103.032Z" fill="#CEE0AD"/>
<path d="M328.322 511.972C318.302 511.972 308.262 511.302 298.232 509.952C268.302 505.922 239.832 496.032 213.622 480.542L110.832 419.782C107.952 418.082 105.872 415.312 105.042 412.072C104.212 408.832 104.702 405.402 106.402 402.532L121.692 376.662C92.7318 310.272 97.2718 234.112 134.222 171.592C171.172 109.072 235.712 68.3818 307.832 61.7318L323.122 35.8618C326.662 29.8718 334.382 27.8918 340.372 31.4318L443.162 92.1918C469.372 107.682 491.762 127.852 509.722 152.132C527.062 175.582 539.552 201.852 546.842 230.222C554.132 258.592 555.862 287.632 551.972 316.532C547.942 346.462 538.052 374.932 522.562 401.142C507.072 427.352 486.902 449.742 462.622 467.702C439.172 485.042 412.902 497.532 384.532 504.822C366.012 509.582 347.192 511.972 328.322 511.972ZM134.502 404.502L226.452 458.852C272.522 486.082 326.442 493.742 378.282 480.422C430.112 467.102 473.662 434.392 500.892 388.322C528.122 342.252 535.782 288.332 522.462 236.492C509.142 184.662 476.432 141.112 430.362 113.882L338.402 59.5318L326.182 80.2018C324.062 83.7918 320.292 86.1018 316.122 86.3618C249.642 90.5018 189.742 127.162 155.902 184.412C122.062 241.662 118.822 311.812 147.252 372.052C149.032 375.832 148.832 380.242 146.702 383.832L134.502 404.502Z" fill="#002549"/>
<path d="M225.612 438.572C343.226 438.572 438.572 343.226 438.572 225.612C438.572 107.997 343.226 12.6519 225.612 12.6519C107.997 12.6519 12.6519 107.997 12.6519 225.612C12.6519 343.226 107.997 438.572 225.612 438.572Z" fill="#8CC63F"/>
<g opacity="0.5">
<path d="M62.2219 137.182C122.062 35.9319 252.662 2.37186 353.912 62.2219C365.502 69.0719 376.192 76.8519 385.962 85.4118C371.412 68.7819 354.032 54.1418 333.972 42.2819C232.722 -17.5681 102.122 15.9919 42.2819 117.242C-10.7181 206.902 9.55188 319.572 85.1919 385.742C26.3119 318.432 14.2319 218.382 62.2219 137.182Z" fill="white"/>
</g>
<path d="M225.532 451.212C215.512 451.212 205.472 450.542 195.442 449.192C165.512 445.162 137.042 435.272 110.832 419.782C84.6219 404.292 62.2319 384.122 44.2719 359.842C26.9319 336.392 14.4419 310.122 7.1519 281.752C-0.138098 253.382 -1.8681 224.342 2.0219 195.442C6.0519 165.512 15.9419 137.042 31.4319 110.832C46.9219 84.6219 67.0919 62.2319 91.3719 44.2719C114.822 26.9319 141.092 14.4419 169.462 7.1519C197.832 -0.138098 226.872 -1.8681 255.772 2.0219C285.702 6.0519 314.172 15.9419 340.382 31.4319C366.592 46.9219 388.982 67.0919 406.942 91.3719C424.282 114.822 436.772 141.092 444.062 169.462C451.352 197.832 453.082 226.872 449.192 255.772C445.162 285.702 435.272 314.172 419.782 340.382C404.292 366.592 384.122 388.982 359.842 406.942C336.392 424.282 310.122 436.772 281.752 444.062C263.222 448.822 244.402 451.212 225.532 451.212ZM225.952 25.1619C209.212 25.1619 192.372 27.2719 175.732 31.5519C123.902 44.8719 80.3519 77.5819 53.1219 123.652C25.8919 169.722 18.2319 223.642 31.5519 275.482C44.8719 327.312 77.5819 370.862 123.652 398.092C169.722 425.322 223.642 432.982 275.482 419.662C327.312 406.342 370.862 373.632 398.092 327.562C425.322 281.492 432.982 227.572 419.662 175.732C406.342 123.902 373.632 80.3519 327.562 53.1219C296.272 34.6319 261.362 25.1619 225.952 25.1619Z" fill="#002549"/>
<path d="M337.636 337.634C399.506 275.764 399.506 175.452 337.636 113.582C275.766 51.7119 175.455 51.7119 113.584 113.582C51.7143 175.452 51.7143 275.764 113.584 337.634C175.455 399.504 275.766 399.504 337.636 337.634Z" fill="#BACDDD"/>
<path d="M225.312 396.702C195.082 396.702 165.292 388.622 138.582 372.832C99.2519 349.592 71.3319 312.422 59.9619 268.172C48.5919 223.932 55.1319 177.912 78.3819 138.582C101.622 99.2517 138.792 71.3317 183.042 59.9617C227.292 48.5917 273.312 55.1317 312.632 78.3717C351.962 101.612 379.882 138.782 391.252 183.032C402.622 227.272 396.082 273.302 372.842 312.622C349.602 351.952 312.432 379.872 268.182 391.242C253.982 394.892 239.592 396.702 225.312 396.702ZM225.862 79.7117C213.682 79.7117 201.422 81.2517 189.312 84.3617C151.582 94.0617 119.892 117.862 100.072 151.402C80.2519 184.932 74.6719 224.182 84.3719 261.902C94.0719 299.632 117.872 331.322 151.412 351.142C184.942 370.962 224.192 376.542 261.912 366.842C299.642 357.142 331.332 333.342 351.152 299.802L361.992 306.212L351.152 299.802C370.972 266.272 376.552 227.022 366.852 189.302C357.152 151.572 333.352 119.882 299.812 100.062C277.042 86.6117 251.632 79.7117 225.862 79.7117Z" fill="#002549"/>
<path d="M244.189 232.891C248.207 222.637 243.151 211.068 232.897 207.051C222.644 203.034 211.074 208.089 207.057 218.343C203.04 228.597 208.095 240.166 218.349 244.183C228.603 248.201 240.172 243.145 244.189 232.891Z" fill="#002549"/>
<path d="M213.592 229.392C212.512 225.982 212.942 222.272 214.762 219.192L264.942 134.302C268.482 128.312 276.202 126.332 282.192 129.872C288.182 133.412 290.162 141.132 286.622 147.122L239.302 227.172L213.592 229.392Z" fill="#002549"/>
</svg>
